 0
SECTION
 2
ENTITIES
  0
LINE
 8
Agrupar#19
10
1109.236041835322
20
673.3926528784184
30
2.898234343450328e-12
11
1106.2360418353219
21
673.3926528784209
31
1.0934557946196736e-12
  0
LINE
 8
Agrupar#19
10
1109.236041835322
20
682.8926528784405
30
4.2518182550733186e-12
11
1106.2360418353219
21
682.8926528784204
31
1.003216867178141e-12
  0
LINE
 8
Agrupar#19
10
1085.2360418353253
20
673.3926528784325
30
5.0639686020471136e-12
11
1088.2360418353253
21
673.3926528784278
31
6.868747150877768e-12
  0
LINE
 8
Agrupar#19
10
1109.2360418353326
20
668.6426528784255
30
2.898234343450328e-12
11
1085.2360418353326
21
668.6426528784325
31
5.785880021579375e-12
  0
LINE
 8
Agrupar#19
10
1109.236041835322
20
673.3926528784184
30
2.898234343450328e-12
11
1109.2360418353326
21
668.6426528784255
31
2.898234343450328e-12
  0
LINE
 8
Agrupar#19
10
1106.2360418353219
20
682.8926528784204
30
1.003216867178141e-12
11
1106.2360418353219
21
673.3926528784209
31
1.0934557946196736e-12
  0
LINE
 8
Agrupar#19
10
1109.2360418353326
20
684.6426528784478
30
4.2518182550733186e-12
11
1109.236041835322
21
682.8926528784405
31
4.2518182550733186e-12
  0
LINE
 8
Agrupar#19
10
1085.2360418353326
20
684.6426528784287
30
4.342057182514852e-12
11
1109.2360418353326
21
684.6426528784478
31
4.2518182550733186e-12
  0
LINE
 8
Agrupar#19
10
1085.236041835332
20
682.8926528784292
30
3.6201457629825897e-12
11
1085.2360418353326
21
684.6426528784287
31
4.342057182514852e-12
  0
LINE
 8
Agrupar#19
10
1085.236041835332
20
682.8926528784292
30
3.6201457629825897e-12
11
1088.236041835332
21
682.8926528784284
31
6.868747150877768e-12
  0
LINE
 8
Agrupar#19
10
1088.2360418353253
20
673.3926528784278
30
6.868747150877768e-12
11
1088.236041835332
21
682.8926528784284
31
6.868747150877768e-12
  0
LINE
 8
Agrupar#19
10
1085.2360418353326
20
668.6426528784325
30
5.785880021579375e-12
11
1085.2360418353253
21
673.3926528784325
31
5.0639686020471136e-12
  0
LINE
 8
Agrupar#9
10
1125.236041835309
20
692.6426528783124
30
1.2527200745372967e-11
11
1128.236041835309
21
692.6426528783122
31
1.3827756670469038e-11
  0
LINE
 8
Agrupar#9
10
1125.236041835309
20
692.6426528783124
30
1.2527200745372967e-11
11
1125.23604183531
21
684.6426528784287
31
1.5308087553254506e-11
  0
LINE
 8
Agrupar#9
10
1125.236041835308
20
737.642652878316
30
1.668087715858785e-11
11
1120.486041835309
21
737.6426528783162
31
1.617264517592076e-11
  0
LINE
 8
Agrupar#9
10
1120.4860418353105
20
681.642652878429
30
1.4635742469008123e-11
11
1110.986041835311
21
681.6426528784295
31
1.1701701295540852e-11
  0
LINE
 8
Agrupar#9
10
1120.4860418353087
20
740.6426528783163
30
1.8682970390979608e-11
11
1110.9860418353087
21
740.6426528783168
31
1.5387973507746034e-11
  0
LINE
 8
Agrupar#9
10
1110.9860418353112
20
684.6426528784295
30
1.1956053324561501e-11
11
1110.986041835311
21
681.6426528784295
31
1.1701701295540852e-11
  0
LINE
 8
Agrupar#9
10
1110.9860418353112
20
684.6426528784295
30
1.1956053324561501e-11
11
1109.2360418353112
21
684.6426528784294
31
1.180086852885404e-11
  0
LINE
 8
Agrupar#9
10
1128.2360418353082
20
722.6426528783144
30
1.659687427927895e-11
11
1128.236041835309
21
692.6426528783122
31
1.3827756670469038e-11
  0
LINE
 8
Agrupar#9
10
1120.4860418353107
20
684.642652878429
30
1.4935213961749597e-11
11
1120.4860418353105
21
681.642652878429
31
1.4635742469008123e-11
  0
LINE
 8
Agrupar#9
10
1109.2360418353087
20
737.6426528783167
30
1.3173658134187271e-11
11
1109.2360418353112
21
684.6426528784294
31
1.180086852885404e-11
  0
LINE
 8
Agrupar#9
10
1125.236041835308
20
737.642652878316
30
1.668087715858785e-11
11
1125.2360418353082
21
722.6426528783147
31
1.5296318354182875e-11
  0
LINE
 8
Agrupar#9
10
1120.486041835309
20
737.6426528783162
30
1.617264517592076e-11
11
1120.4860418353087
21
740.6426528783163
31
1.8682970390979608e-11
  0
LINE
 8
Agrupar#9
10
1110.9860418353085
20
737.6426528783168
30
1.3080685879430456e-11
11
1110.9860418353087
21
740.6426528783168
31
1.5387973507746034e-11
  0
LINE
 8
Agrupar#9
10
1110.9860418353085
20
737.6426528783168
30
1.3080685879430456e-11
11
1109.2360418353087
21
737.6426528783167
31
1.3173658134187271e-11
  0
LINE
 8
Agrupar#9
10
1125.23604183531
20
684.6426528784287
30
1.5308087553254506e-11
11
1120.4860418353107
21
684.642652878429
31
1.4935213961749597e-11
  0
LINE
 8
Agrupar#9
10
1125.2360418353082
20
722.6426528783147
30
1.5296318354182875e-11
11
1128.2360418353082
21
722.6426528783144
31
1.659687427927895e-11
  0
LINE
 8
Agrupar#24
10
1075.5667627712269
20
674.985063223423
30
1.003216867178141e-12
11
1075.937009265946
21
675.1125438684137
31
1.003216867178141e-12
  0
LINE
 8
Agrupar#24
10
1076.7120175286784
20
675.0651321012397
30
1.003216867178141e-12
11
1077.063963764348
21
674.8934707226559
31
1.003216867178141e-12
  0
LINE
 8
Agrupar#24
10
1077.7059328253154
20
673.9416854478063
30
1.003216867178141e-12
11
1077.733242828448
21
673.5510603776584
31
1.003216867178141e-12
  0
LINE
 8
Agrupar#24
10
1077.4868596795577
20
672.8147309494044
30
1.003216867178141e-12
11
1077.229957131964
21
672.519206224992
31
1.003216867178141e-12
  0
LINE
 8
Agrupar#24
10
1074.9852239910963
20
674.4705748074464
30
1.003216867178141e-12
11
1075.24212653869
21
674.7660995318588
31
1.003216867178141e-12
  0
LINE
 8
Agrupar#24
10
1077.733242828448
20
673.5510603776584
30
1.003216867178141e-12
11
1077.6585210581413
21
673.166677185074
31
1.003216867178141e-12
  0
LINE
 8
Agrupar#24
10
1077.6585210581413
20
673.166677185074
30
1.003216867178141e-12
11
1077.4868596795577
21
672.8147309494044
31
1.003216867178141e-12
  0
LINE
 8
Agrupar#24
10
1076.327634336094
20
675.1398538715465
30
1.003216867178141e-12
11
1076.7120175286784
21
675.0651321012397
31
1.003216867178141e-12
  0
LINE
 8
Agrupar#24
10
1074.8936314903294
20
672.9733738143252
30
1.003216867178141e-12
11
1074.7661508453386
21
673.3436203090445
31
1.003216867178141e-12
  0
LINE
 8
Agrupar#24
10
1075.24212653869
20
674.7660995318588
30
1.003216867178141e-12
11
1075.5667627712269
21
674.985063223423
31
1.003216867178141e-12
  0
LINE
 8
Agrupar#24
10
1077.063963764348
20
674.8934707226559
30
1.003216867178141e-12
11
1077.3594884887605
21
674.6365681750624
31
1.003216867178141e-12
  0
LINE
 8
Agrupar#24
10
1077.229957131964
20
672.519206224992
30
1.003216867178141e-12
11
1076.9053208994271
21
672.3002425334276
31
1.003216867178141e-12
  0
LINE
 8
Agrupar#24
10
1074.8135626125127
20
674.1186285717768
30
1.003216867178141e-12
11
1074.9852239910963
21
674.4705748074464
31
1.003216867178141e-12
  0
LINE
 8
Agrupar#24
10
1075.937009265946
20
675.1125438684137
30
1.003216867178141e-12
11
1076.327634336094
21
675.1398538715465
31
1.003216867178141e-12
  0
LINE
 8
Agrupar#24
10
1077.3594884887605
20
674.6365681750624
30
1.003216867178141e-12
11
1077.5784521803246
21
674.3119319425256
31
1.003216867178141e-12
  0
LINE
 8
Agrupar#24
10
1074.7661508453386
20
673.3436203090445
30
1.003216867178141e-12
11
1074.738840842206
21
673.7342453791924
31
1.003216867178141e-12
  0
LINE
 8
Agrupar#24
10
1074.738840842206
20
673.7342453791924
30
1.003216867178141e-12
11
1074.8135626125127
21
674.1186285717768
31
1.003216867178141e-12
  0
LINE
 8
Agrupar#24
10
1077.5784521803246
20
674.3119319425256
30
1.003216867178141e-12
11
1077.7059328253154
21
673.9416854478063
31
1.003216867178141e-12
  0
LINE
 8
Agrupar#24
10
1076.9053208994271
20
672.3002425334276
30
1.003216867178141e-12
11
1076.535074404708
21
672.172761888437
31
1.003216867178141e-12
  0
LINE
 8
Agrupar#24
10
1067.2360418353283
20
668.6426528784255
30
1.003216867178141e-12
11
1067.2360418353283
21
678.6426528784264
31
1.003216867178141e-12
  0
LINE
 8
Agrupar#24
10
1085.2360418353253
20
668.6426528784255
30
1.003216867178141e-12
11
1067.2360418353283
21
668.6426528784255
31
1.003216867178141e-12
  0
LINE
 8
Agrupar#24
10
1085.2360418353253
20
678.6426528784264
30
1.003216867178141e-12
11
1085.2360418353253
21
668.6426528784255
31
1.003216867178141e-12
  0
LINE
 8
Agrupar#24
10
1067.2360418353283
20
678.6426528784264
30
1.003216867178141e-12
11
1085.2360418353253
21
678.6426528784264
31
1.003216867178141e-12
  0
LINE
 8
Agrupar#24
10
1076.535074404708
20
672.172761888437
30
1.003216867178141e-12
11
1076.236041835327
21
672.1518554463506
31
1.003216867178141e-12
  0
LINE
 8
Agrupar#24
10
1076.236041835327
20
672.1518554463506
30
1.003216867178141e-12
11
1076.14444933456
21
672.1454518853043
31
1.003216867178141e-12
  0
LINE
 8
Agrupar#24
10
1076.14444933456
20
672.1454518853043
30
1.003216867178141e-12
11
1075.7600661419756
21
672.220173655611
31
1.003216867178141e-12
  0
LINE
 8
Agrupar#24
10
1075.7600661419756
20
672.220173655611
30
1.003216867178141e-12
11
1075.408119906306
21
672.3918350341947
31
1.003216867178141e-12
  0
LINE
 8
Agrupar#24
10
1075.408119906306
20
672.3918350341947
30
1.003216867178141e-12
11
1075.1125951818935
21
672.6487375817884
31
1.003216867178141e-12
  0
LINE
 8
Agrupar#24
10
1075.1125951818935
20
672.6487375817884
30
1.003216867178141e-12
11
1074.8936314903294
21
672.9733738143252
31
1.003216867178141e-12
  0
LINE
 8
Agrupar#9
10
1069.2360418353326
20
729.6426528784333
30
5.763320289718992e-12
11
1066.2360418353326
21
729.6426528784336
31
6.1017162676247396e-12
  0
LINE
 8
Agrupar#9
10
1069.2360418353326
20
729.6426528784333
30
5.763320289718992e-12
11
1069.2360418353317
21
737.6426528783171
31
9.282638459938768e-12
  0
LINE
 8
Agrupar#9
10
1069.2360418353326
20
684.6426528784298
30
5.763320289718992e-12
11
1073.9860418353314
21
684.6426528784294
31
6.778508223436235e-12
  0
LINE
 8
Agrupar#9
10
1073.9860418353312
20
740.6426528783168
30
1.0410625052957927e-11
11
1083.4860418353308
21
740.642652878316
31
1.0523423712259843e-11
  0
LINE
 8
Agrupar#9
10
1073.9860418353317
20
681.6426528784294
30
9.01192167761417e-12
11
1083.4860418353317
21
681.6426528784286
31
8.763764627149956e-12
  0
LINE
 8
Agrupar#9
10
1083.4860418353305
20
737.642652878316
30
1.050086398039946e-11
11
1083.4860418353308
21
740.642652878316
31
1.0523423712259843e-11
  0
LINE
 8
Agrupar#9
10
1083.4860418353305
20
737.642652878316
30
1.050086398039946e-11
11
1085.2360418353305
21
737.642652878316
31
1.0906939153886356e-11
  0
LINE
 8
Agrupar#9
10
1066.2360418353326
20
699.6426528784315
30
6.1017162676247396e-12
11
1066.2360418353326
21
729.6426528784336
31
6.1017162676247396e-12
  0
LINE
 8
Agrupar#9
10
1073.986041835331
20
737.6426528783167
30
1.043318478481831e-11
11
1073.9860418353312
21
740.6426528783168
31
1.0410625052957927e-11
  0
LINE
 8
Agrupar#9
10
1085.236041835332
20
684.6426528784287
30
7.38762098366658e-12
11
1085.2360418353305
21
737.642652878316
31
1.0906939153886356e-11
  0
LINE
 8
Agrupar#9
10
1069.2360418353326
20
684.6426528784298
30
5.763320289718992e-12
11
1069.2360418353326
21
699.6426528784311
31
5.763320289718992e-12
  0
LINE
 8
Agrupar#9
10
1073.9860418353314
20
684.6426528784294
30
6.778508223436235e-12
11
1073.9860418353317
21
681.6426528784294
31
9.01192167761417e-12
  0
LINE
 8
Agrupar#9
10
1083.4860418353321
20
684.6426528784287
30
6.7333887597154685e-12
11
1083.4860418353317
21
681.6426528784286
31
8.763764627149956e-12
  0
LINE
 8
Agrupar#9
10
1083.4860418353321
20
684.6426528784287
30
6.7333887597154685e-12
11
1085.236041835332
21
684.6426528784287
31
7.38762098366658e-12
  0
LINE
 8
Agrupar#9
10
1069.2360418353317
20
737.6426528783171
30
9.282638459938768e-12
11
1073.986041835331
21
737.6426528783167
31
1.043318478481831e-11
  0
LINE
 8
Agrupar#9
10
1069.2360418353326
20
699.6426528784311
30
5.763320289718992e-12
11
1066.2360418353326
21
699.6426528784315
31
6.1017162676247396e-12
  0
LINE
 8
Agrupar#23
10
1127.2360418353294
20
668.6426528784255
30
2.898234343450328e-12
11
1109.2360418353326
21
668.6426528784255
31
2.898234343450328e-12
  0
LINE
 8
Agrupar#23
10
1115.2360418353312
20
675.3747036859942
30
2.898234343450328e-12
11
1118.2360418353312
21
677.1067544935632
31
2.898234343450328e-12
  0
LINE
 8
Agrupar#23
10
1115.2360418353312
20
671.9106020708563
30
2.898234343450328e-12
11
1115.2360418353312
21
675.3747036859942
31
2.898234343450328e-12
  0
LINE
 8
Agrupar#23
10
1118.2360418353312
20
670.1785512632874
30
2.898234343450328e-12
11
1115.2360418353312
21
671.9106020708563
31
2.898234343450328e-12
  0
LINE
 8
Agrupar#23
10
1109.2360418353326
20
668.6426528784255
30
2.898234343450328e-12
11
1109.2360418353326
21
678.6426528784264
31
2.898234343450328e-12
  0
LINE
 8
Agrupar#23
10
1109.2360418353326
20
678.6426528784264
30
2.898234343450328e-12
11
1127.2360418353294
21
678.6426528784264
31
2.898234343450328e-12
  0
LINE
 8
Agrupar#23
10
1127.2360418353294
20
678.6426528784264
30
2.898234343450328e-12
11
1127.2360418353294
21
668.6426528784255
31
2.898234343450328e-12
  0
LINE
 8
Agrupar#23
10
1121.2360418353312
20
671.9106020708566
30
2.898234343450328e-12
11
1118.2360418353312
21
670.1785512632874
31
2.898234343450328e-12
  0
LINE
 8
Agrupar#23
10
1121.2360418353312
20
675.3747036859945
30
2.898234343450328e-12
11
1121.2360418353312
21
671.9106020708566
31
2.898234343450328e-12
  0
LINE
 8
Agrupar#23
10
1118.2360418353312
20
677.1067544935632
30
2.898234343450328e-12
11
1121.2360418353312
21
675.3747036859945
31
2.898234343450328e-12
  0
LINE
 8
Agrupar#16
10
1106.2360418353333
20
727.6426528784287
30
7.38762098366658e-12
11
1103.2996007898212
21
727.6426528784287
31
7.38762098366658e-12
  0
LINE
 8
Agrupar#16
10
1106.2360418353333
20
684.6426528784287
30
7.38762098366658e-12
11
1106.2360418353333
21
727.6426528784287
31
7.38762098366658e-12
  0
LINE
 8
Agrupar#16
10
1106.2360418353333
20
684.6426528784287
30
7.38762098366658e-12
11
1109.2360418353112
21
684.6426528784294
31
1.180086852885404e-11
  0
LINE
 8
Agrupar#16
10
1097.9860418353296
20
733.9416909841054
30
9.034481409474553e-12
11
1098.2967020071092
21
733.7033130502084
31
9.034481409474553e-12
  0
LINE
 8
Agrupar#16
10
1095.9370037296526
20
733.3926528784285
30
9.023201543544361e-12
11
1096.1753816635496
21
733.7033130502084
31
9.034481409474553e-12
  0
LINE
 8
Agrupar#16
10
1096.1753816635496
20
731.5819927066489
30
8.966802213893403e-12
11
1095.9370037296526
21
731.8926528784284
31
8.978082079823595e-12
  0
LINE
 8
Agrupar#16
10
1085.236041835332
20
684.6426528784294
30
3.8441091889484026e-11
11
1088.236041835333
21
684.6426528784287
31
9.733833097146431e-12
  0
LINE
 8
Agrupar#16
10
1097.2360418353294
20
731.1426528784286
30
8.955522347963212e-12
11
1096.847813267676
21
731.193764138995
31
8.955522347963212e-12
  0
LINE
 8
Agrupar#16
10
1097.624270402983
20
731.193764138995
30
8.955522347963212e-12
11
1097.2360418353294
21
731.1426528784286
31
8.955522347963212e-12
  0
LINE
 8
Agrupar#16
10
1097.624270402983
20
734.0915416178624
30
9.045761275404745e-12
11
1097.9860418353296
21
733.9416909841054
31
9.034481409474553e-12
  0
LINE
 8
Agrupar#16
10
1091.1724828808444
20
727.6426528784287
30
7.38762098366658e-12
11
1088.236041835333
21
727.6426528784287
31
7.38762098366658e-12
  0
LINE
 8
Agrupar#16
10
1109.2360418353112
20
740.6426528783225
30
1.2486120384113179e-11
11
1085.236041835332
21
740.6426528783225
31
1.4062481647857454e-11
  0
LINE
 8
Agrupar#16
10
1098.684930574763
20
733.0308814460824
30
9.01192167761417e-12
11
1098.7360418353294
21
732.6426528784286
31
9.000641811683978e-12
  0
LINE
 8
Agrupar#16
10
1103.2996007898212
20
727.6426528784287
30
7.38762098366658e-12
11
1103.2996007898212
21
684.6426528784287
31
9.666153901565283e-12
  0
LINE
 8
Agrupar#16
10
1098.5350799410062
20
733.3926528784289
30
9.023201543544361e-12
11
1098.684930574763
21
733.0308814460824
31
9.01192167761417e-12
  0
LINE
 8
Agrupar#16
10
1098.7360418353294
20
732.6426528784286
30
9.000641811683978e-12
11
1098.684930574763
21
732.2544243107747
31
8.989361945753787e-12
  0
LINE
 8
Agrupar#16
10
1096.847813267676
20
731.193764138995
30
8.955522347963212e-12
11
1096.4860418353292
21
731.343614772752
31
8.966802213893403e-12
  0
LINE
 8
Agrupar#16
10
1088.236041835333
20
727.6426528784287
30
7.38762098366658e-12
11
1088.236041835333
21
684.6426528784287
31
9.733833097146431e-12
  0
LINE
 8
Agrupar#16
10
1091.1724828808444
20
684.6426528784287
30
7.38762098366658e-12
11
1091.1724828808444
21
727.6426528784287
31
7.38762098366658e-12
  0
LINE
 8
Agrupar#16
10
1095.9370037296526
20
731.8926528784284
30
8.978082079823595e-12
11
1095.7871530958957
21
732.2544243107748
31
8.989361945753787e-12
  0
LINE
 8
Agrupar#16
10
1096.1753816635496
20
733.7033130502084
30
9.034481409474553e-12
11
1096.4860418353292
21
733.9416909841055
31
9.034481409474553e-12
  0
LINE
 8
Agrupar#16
10
1085.236041835332
20
740.6426528783225
30
1.4062481647857454e-11
11
1085.236041835332
21
684.6426528784294
31
3.8441091889484026e-11
  0
LINE
 8
Agrupar#16
10
1098.5350799410062
20
731.8926528784289
30
8.978082079823595e-12
11
1098.2967020071092
21
731.5819927066489
31
8.966802213893403e-12
  0
LINE
 8
Agrupar#16
10
1097.2360418353294
20
734.1426528784286
30
9.045761275404745e-12
11
1097.624270402983
21
734.0915416178624
31
9.045761275404745e-12
  0
LINE
 8
Agrupar#16
10
1109.2360418353112
20
684.6426528784294
30
1.180086852885404e-11
11
1109.2360418353112
21
740.6426528783225
31
1.2486120384113179e-11
  0
LINE
 8
Agrupar#16
10
1098.2967020071092
20
731.5819927066489
30
8.966802213893403e-12
11
1097.9860418353296
21
731.3436147727518
31
8.966802213893403e-12
  0
LINE
 8
Agrupar#16
10
1098.684930574763
20
732.2544243107747
30
8.989361945753787e-12
11
1098.5350799410062
21
731.8926528784289
31
8.978082079823595e-12
  0
LINE
 8
Agrupar#16
10
1091.1724828808444
20
684.6426528784287
30
7.38762098366658e-12
11
1103.2996007898212
21
684.6426528784287
31
9.666153901565283e-12
  0
LINE
 8
Agrupar#16
10
1096.847813267676
20
734.0915416178624
30
9.045761275404745e-12
11
1097.2360418353294
21
734.1426528784286
31
9.045761275404745e-12
  0
LINE
 8
Agrupar#16
10
1098.2967020071092
20
733.7033130502084
30
9.034481409474553e-12
11
1098.5350799410062
21
733.3926528784289
31
9.023201543544361e-12
  0
LINE
 8
Agrupar#16
10
1097.9860418353296
20
731.3436147727518
30
8.966802213893403e-12
11
1097.624270402983
21
731.193764138995
31
8.955522347963212e-12
  0
LINE
 8
Agrupar#16
10
1096.4860418353292
20
731.343614772752
30
8.966802213893403e-12
11
1096.1753816635496
21
731.5819927066489
31
8.966802213893403e-12
  0
LINE
 8
Agrupar#16
10
1095.7871530958957
20
732.2544243107748
30
8.989361945753787e-12
11
1095.7360418353294
21
732.6426528784285
31
9.000641811683978e-12
  0
LINE
 8
Agrupar#16
10
1095.7360418353294
20
732.6426528784285
30
9.000641811683978e-12
11
1095.7871530958957
21
733.0308814460825
31
9.01192167761417e-12
  0
LINE
 8
Agrupar#16
10
1095.7871530958957
20
733.0308814460825
30
9.01192167761417e-12
11
1095.9370037296526
21
733.3926528784285
31
9.023201543544361e-12
  0
LINE
 8
Agrupar#16
10
1096.4860418353292
20
733.9416909841055
30
9.034481409474553e-12
11
1096.847813267676
21
734.0915416178624
31
9.045761275404745e-12
  0
LINE
 8
Agrupar#17
10
928.2360418353278
20
833.6426528784311
30
5.763320289718992e-12
11
919.236041835328
21
833.6426528784311
31
5.763320289718992e-12
  0
LINE
 8
Agrupar#17
10
1018.2360418353254
20
877.6426528784381
30
1.5509124453404527e-11
11
1036.2360418353246
21
877.6426528784395
31
1.6591991582702917e-11
  0
LINE
 8
Agrupar#17
10
916.2360418353287
20
845.1426528784458
30
-1.1971066539102054e-14
11
916.236041835328
21
833.64265287843
31
5.04140887018673e-12
  0
LINE
 8
Agrupar#17
10
964.2360418353239
20
880.6426528784341
30
1.1538611645977086e-11
11
964.2360418353246
21
877.6426528784341
31
1.1538611645977086e-11
  0
LINE
 8
Agrupar#17
10
916.2360418353247
20
877.6426528784305
30
5.763320289718992e-12
11
916.236041835328
21
863.142652878445
31
7.099403529931597e-13
  0
LINE
 8
Agrupar#17
10
1069.236041835326
20
863.1426528784414
30
2.561588432685619e-11
11
1069.2360418353276
21
845.1426528784415
31
2.525492861709006e-11
  0
LINE
 8
Agrupar#17
10
1066.236041835329
20
791.6426528784293
30
5.763320289718992e-12
11
1069.2360418353278
21
791.6426528784311
31
5.763320289718992e-12
  0
LINE
 8
Agrupar#17
10
1069.2360418353278
20
791.6426528784311
30
5.763320289718992e-12
11
1069.2360418353285
21
809.6426528784302
31
5.763320289718992e-12
  0
LINE
 8
Agrupar#17
10
1066.2360418353285
20
809.6426528784309
30
5.763320289718992e-12
11
1069.2360418353285
21
809.6426528784302
31
5.763320289718992e-12
  0
LINE
 8
Agrupar#17
10
1066.2360418353285
20
809.6426528784309
30
5.763320289718992e-12
11
1066.2360418353283
21
833.6426528784413
31
1.6231035872936788e-11
  0
LINE
 8
Agrupar#17
10
1054.236041835328
20
833.6426528784405
30
1.695294729246905e-11
11
1066.2360418353283
21
833.6426528784413
31
1.6231035872936788e-11
  0
LINE
 8
Agrupar#17
10
1054.236041835328
20
833.6426528784405
30
1.695294729246905e-11
11
1054.236041835328
21
830.6426528784405
31
1.695294729246905e-11
  0
LINE
 8
Agrupar#17
10
1054.236041835328
20
830.6426528784405
30
1.695294729246905e-11
11
1036.2360418353278
21
830.642652878439
31
1.5509124453404527e-11
  0
LINE
 8
Agrupar#17
10
1036.2360418353278
20
833.6426528784391
30
1.5870080163170656e-11
11
1036.2360418353278
21
830.642652878439
31
1.5509124453404527e-11
  0
LINE
 8
Agrupar#17
10
1018.2360418353283
20
833.6426528784376
30
1.4426257324106134e-11
11
1036.2360418353278
21
833.6426528784391
31
1.5870080163170656e-11
  0
LINE
 8
Agrupar#17
10
1018.2360418353283
20
833.6426528784376
30
1.4426257324106134e-11
11
1018.2360418353286
21
830.6426528784376
31
1.4426257324106134e-11
  0
LINE
 8
Agrupar#17
10
1018.2360418353286
20
830.6426528784376
30
1.4426257324106134e-11
11
1000.2360418353284
21
830.6426528784365
31
1.298243448504161e-11
  0
LINE
 8
Agrupar#17
10
1000.2360418353284
20
833.6426528784365
30
1.298243448504161e-11
11
1000.2360418353284
21
830.6426528784365
31
1.298243448504161e-11
  0
LINE
 8
Agrupar#17
10
982.2360418353281
20
833.6426528784351
30
1.1899567355743216e-11
11
1000.2360418353284
21
833.6426528784365
31
1.298243448504161e-11
  0
LINE
 8
Agrupar#17
10
982.2360418353281
20
833.6426528784351
30
1.1899567355743216e-11
11
982.2360418353281
21
830.642652878435
31
1.1899567355743216e-11
  0
LINE
 8
Agrupar#17
10
982.2360418353281
20
830.642652878435
30
1.1899567355743216e-11
11
964.2360418353279
21
830.6426528784336
31
1.0455744516678693e-11
  0
LINE
 8
Agrupar#17
10
964.2360418353279
20
833.6426528784336
30
1.0455744516678693e-11
11
964.2360418353279
21
830.6426528784336
31
1.0455744516678693e-11
  0
LINE
 8
Agrupar#17
10
946.2360418353277
20
833.6426528784322
30
9.3728773873803e-12
11
964.2360418353279
21
833.6426528784336
31
1.0455744516678693e-11
  0
LINE
 8
Agrupar#17
10
946.2360418353277
20
833.6426528784322
30
9.3728773873803e-12
11
946.236041835328
21
830.6426528784322
31
9.01192167761417e-12
  0
LINE
 8
Agrupar#17
10
946.236041835328
20
830.6426528784322
30
9.01192167761417e-12
11
928.2360418353278
21
830.6426528784311
31
5.763320289718992e-12
  0
LINE
 8
Agrupar#17
10
928.2360418353278
20
833.6426528784311
30
5.763320289718992e-12
11
928.2360418353278
21
830.6426528784311
31
5.763320289718992e-12
  0
LINE
 8
Agrupar#17
10
919.236041835328
20
833.6426528784311
30
5.763320289718992e-12
11
916.236041835328
21
833.64265287843
31
5.04140887018673e-12
  0
LINE
 8
Agrupar#17
10
916.236041835328
20
833.64265287843
30
5.04140887018673e-12
11
916.2360418353287
21
809.6426528784035
31
5.774600155649183e-12
  0
LINE
 8
Agrupar#17
10
916.2360418353287
20
809.6426528784035
30
5.774600155649183e-12
11
913.2360418353284
21
809.6426528784027
31
5.774600155649183e-12
  0
LINE
 8
Agrupar#17
10
913.236041835329
20
791.6426528784293
30
5.763320289718992e-12
11
913.2360418353284
21
809.6426528784027
31
5.774600155649183e-12
  0
LINE
 8
Agrupar#17
10
916.236041835328
20
791.6426528784311
30
5.763320289718992e-12
11
913.236041835329
21
791.6426528784293
31
5.763320289718992e-12
  0
LINE
 8
Agrupar#17
10
916.236041835328
20
791.6426528784311
30
5.763320289718992e-12
11
916.2360418353284
21
767.6426528784308
31
5.763320289718992e-12
  0
LINE
 8
Agrupar#17
10
916.2360418353284
20
767.6426528784308
30
5.763320289718992e-12
11
928.2360418353278
21
767.6426528784308
31
5.763320289718992e-12
  0
LINE
 8
Agrupar#17
10
928.2360418353278
20
770.6426528784308
30
5.763320289718992e-12
11
928.2360418353278
21
767.6426528784308
31
5.763320289718992e-12
  0
LINE
 8
Agrupar#17
10
937.2360418353279
20
770.6426528784308
30
5.763320289718992e-12
11
928.2360418353278
21
770.6426528784308
31
5.763320289718992e-12
  0
LINE
 8
Agrupar#17
10
946.2360418353277
20
770.642652878433
30
1.0094788806912562e-11
11
937.2360418353279
21
770.6426528784308
31
5.763320289718992e-12
  0
LINE
 8
Agrupar#17
10
946.2360418353277
20
770.642652878433
30
1.0094788806912562e-11
11
946.236041835328
21
767.6426528784308
31
5.763320289718992e-12
  0
LINE
 8
Agrupar#17
10
946.236041835328
20
767.6426528784308
30
5.763320289718992e-12
11
964.2360418353283
21
767.6426528784308
31
5.763320289718992e-12
  0
LINE
 8
Agrupar#17
10
964.2360418353283
20
770.6426528784308
30
5.763320289718992e-12
11
964.2360418353283
21
767.6426528784308
31
5.763320289718992e-12
  0
LINE
 8
Agrupar#17
10
973.2360418353284
20
770.6426528784308
30
5.763320289718992e-12
11
964.2360418353283
21
770.6426528784308
31
5.763320289718992e-12
  0
LINE
 8
Agrupar#17
10
982.2360418353285
20
770.6426528784308
30
5.763320289718992e-12
11
973.2360418353284
21
770.6426528784308
31
5.763320289718992e-12
  0
LINE
 8
Agrupar#17
10
982.2360418353285
20
770.6426528784308
30
5.763320289718992e-12
11
982.2360418353285
21
767.6426528784308
31
5.763320289718992e-12
  0
LINE
 8
Agrupar#17
10
982.2360418353285
20
767.6426528784308
30
5.763320289718992e-12
11
1000.2360418353284
21
767.6426528784373
31
1.4065301614340001e-11
  0
LINE
 8
Agrupar#17
10
1000.2360418353265
20
770.6426528784373
30
1.4065301614340001e-11
11
1000.2360418353284
21
767.6426528784373
31
1.4065301614340001e-11
  0
LINE
 8
Agrupar#17
10
1018.2360418353261
20
770.6426528784384
30
1.5509124453404527e-11
11
1000.2360418353265
21
770.6426528784373
31
1.4065301614340001e-11
  0
LINE
 8
Agrupar#17
10
1018.2360418353261
20
770.6426528784384
30
1.5509124453404527e-11
11
1018.2360418353286
21
767.6426528784384
31
1.5509124453404527e-11
  0
LINE
 8
Agrupar#17
10
1018.2360418353286
20
767.6426528784384
30
1.5509124453404527e-11
11
1036.2360418353283
21
767.6426528784308
31
5.763320289718992e-12
  0
LINE
 8
Agrupar#17
10
1036.2360418353283
20
770.6426528784308
30
5.763320289718992e-12
11
1036.2360418353283
21
767.6426528784308
31
5.763320289718992e-12
  0
LINE
 8
Agrupar#17
10
1036.2360418353283
20
770.6426528784308
30
5.763320289718992e-12
11
1054.2360418353285
21
770.6426528784308
31
5.763320289718992e-12
  0
LINE
 8
Agrupar#17
10
1054.2360418353285
20
770.6426528784308
30
5.763320289718992e-12
11
1054.2360418353285
21
767.6426528784308
31
5.763320289718992e-12
  0
LINE
 8
Agrupar#17
10
1054.2360418353285
20
767.6426528784308
30
5.763320289718992e-12
11
1066.2360418353283
21
767.6426528784308
31
5.763320289718992e-12
  0
LINE
 8
Agrupar#17
10
1066.2360418353283
20
767.6426528784308
30
5.763320289718992e-12
11
1066.236041835329
21
791.6426528784293
31
5.763320289718992e-12
  0
LINE
 8
Agrupar#17
10
982.2360418353242
20
880.6426528784356
30
1.298243448504161e-11
11
982.236041835325
21
877.6426528784356
31
1.2621478775275479e-11
  0
LINE
 8
Agrupar#17
10
1066.2360418353283
20
845.1426528784415
30
2.3450150068259406e-11
11
1069.2360418353276
21
845.1426528784415
31
2.525492861709006e-11
  0
LINE
 8
Agrupar#17
10
1066.2360418353283
20
845.1426528784415
30
2.3450150068259406e-11
11
1066.2360418353283
21
833.6426528784413
31
1.6231035872936788e-11
  0
LINE
 8
Agrupar#17
10
916.2360418353287
20
845.1426528784458
30
-1.1971066539102054e-14
11
913.2360418353269
21
845.1426528784455
31
2.875674611589945e-12
  0
LINE
 8
Agrupar#17
10
913.2360418353262
20
863.142652878445
30
3.236630321356076e-12
11
913.2360418353269
21
845.1426528784455
31
2.875674611589945e-12
  0
LINE
 8
Agrupar#17
10
916.236041835328
20
863.142652878445
30
7.099403529931597e-13
11
913.2360418353262
21
863.142652878445
31
3.236630321356076e-12
  0
LINE
 8
Agrupar#17
10
928.2360418353242
20
877.6426528784316
30
6.846187419017384e-12
11
916.2360418353247
21
877.6426528784305
31
5.763320289718992e-12
  0
LINE
 8
Agrupar#17
10
928.2360418353238
20
880.6426528784316
30
6.846187419017384e-12
11
928.2360418353242
21
877.6426528784316
31
6.846187419017384e-12
  0
LINE
 8
Agrupar#17
10
946.236041835324
20
880.6426528784327
30
1.0094788806912562e-11
11
928.2360418353238
21
880.6426528784316
31
6.846187419017384e-12
  0
LINE
 8
Agrupar#17
10
946.236041835324
20
880.6426528784327
30
1.0094788806912562e-11
11
946.2360418353244
21
877.6426528784326
31
1.0094788806912562e-11
  0
LINE
 8
Agrupar#17
10
946.2360418353244
20
877.6426528784326
30
1.0094788806912562e-11
11
964.2360418353246
21
877.6426528784341
31
1.1538611645977086e-11
  0
LINE
 8
Agrupar#17
10
982.2360418353242
20
880.6426528784356
30
1.298243448504161e-11
11
964.2360418353239
21
880.6426528784341
31
1.1538611645977086e-11
  0
LINE
 8
Agrupar#17
10
982.236041835325
20
877.6426528784356
30
1.2621478775275479e-11
11
1000.2360418353252
21
877.642652878437
31
1.4065301614340001e-11
  0
LINE
 8
Agrupar#17
10
1000.2360418353244
20
880.642652878437
30
1.4065301614340001e-11
11
1000.2360418353252
21
877.642652878437
31
1.4065301614340001e-11
  0
LINE
 8
Agrupar#17
10
1018.2360418353243
20
880.6426528784381
30
1.5509124453404527e-11
11
1000.2360418353244
21
880.642652878437
31
1.4065301614340001e-11
  0
LINE
 8
Agrupar#17
10
1018.2360418353243
20
880.6426528784381
30
1.5509124453404527e-11
11
1018.2360418353254
21
877.6426528784381
31
1.5509124453404527e-11
  0
LINE
 8
Agrupar#17
10
1036.2360418353237
20
880.6426528784395
30
1.6591991582702917e-11
11
1036.2360418353246
21
877.6426528784395
31
1.6591991582702917e-11
  0
LINE
 8
Agrupar#17
10
1054.2360418353242
20
880.642652878441
30
1.8035814421767443e-11
11
1036.2360418353237
21
880.6426528784395
31
1.6591991582702917e-11
  0
LINE
 8
Agrupar#17
10
1054.2360418353242
20
880.642652878441
30
1.8035814421767443e-11
11
1054.2360418353248
21
877.6426528784409
31
1.8035814421767443e-11
  0
LINE
 8
Agrupar#17
10
1054.2360418353248
20
877.6426528784409
30
1.8035814421767443e-11
11
1066.2360418353248
21
877.6426528784417
31
1.695294729246905e-11
  0
LINE
 8
Agrupar#17
10
1066.2360418353248
20
877.6426528784417
30
1.695294729246905e-11
11
1066.2360418353267
21
863.142652878441
31
2.4172061487791667e-11
  0
LINE
 8
Agrupar#17
10
1066.2360418353267
20
863.142652878441
30
2.4172061487791667e-11
11
1069.236041835326
21
863.1426528784414
31
2.561588432685619e-11
  0
LINE
 8
Agrupar#17
10
990.5889942225702
20
851.7278383127206
30
1.334339019480774e-11
11
991.2360418353264
21
851.6426528784433
31
1.3433629122249273e-11
  0
LINE
 8
Agrupar#17
10
991.2360418353264
20
851.6426528784433
30
1.3433629122249273e-11
11
991.8830894480831
21
851.7278383127206
31
1.3523868049690806e-11
  0
LINE
 8
Agrupar#17
10
991.8830894480831
20
851.7278383127206
30
1.3523868049690806e-11
11
992.4860418353265
21
851.9775893689823
31
1.3704345904573871e-11
  0
LINE
 8
Agrupar#17
10
992.4860418353265
20
851.9775893689823
30
1.3704345904573871e-11
11
993.0038087882931
21
852.3748859254769
31
1.3794584832015404e-11
  0
LINE
 8
Agrupar#17
10
993.0038087882931
20
852.3748859254769
30
1.3794584832015404e-11
11
993.4011053447877
21
852.8926528784433
31
1.3704345904573871e-11
  0
LINE
 8
Agrupar#17
10
993.4011053447877
20
852.8926528784433
30
1.3704345904573871e-11
11
993.6508564010493
21
853.4956052656868
31
1.3884823759456937e-11
  0
LINE
 8
Agrupar#17
10
993.6508564010493
20
853.4956052656868
30
1.3884823759456937e-11
11
993.7360418353267
21
854.1426528784434
31
1.397506268689847e-11
  0
LINE
 8
Agrupar#17
10
993.7360418353267
20
854.1426528784434
30
1.397506268689847e-11
11
993.6508564010493
21
854.7897004911997
31
1.397506268689847e-11
  0
LINE
 8
Agrupar#17
10
993.6508564010493
20
854.7897004911997
30
1.397506268689847e-11
11
993.4011053447877
21
855.3926528784435
31
1.3884823759456937e-11
  0
LINE
 8
Agrupar#17
10
993.4011053447877
20
855.3926528784435
30
1.3884823759456937e-11
11
993.0038087882931
21
855.9104198314096
31
1.397506268689847e-11
  0
LINE
 8
Agrupar#17
10
993.0038087882931
20
855.9104198314096
30
1.397506268689847e-11
11
992.4860418353265
21
856.3077163879045
31
1.397506268689847e-11
  0
LINE
 8
Agrupar#17
10
992.4860418353265
20
856.3077163879045
30
1.397506268689847e-11
11
991.8830894480827
21
856.5574674441659
31
1.3884823759456937e-11
  0
LINE
 8
Agrupar#17
10
991.8830894480827
20
856.5574674441659
30
1.3884823759456937e-11
11
991.2360418353264
21
856.6426528784432
31
1.3794584832015404e-11
  0
LINE
 8
Agrupar#17
10
991.2360418353264
20
856.6426528784432
30
1.3794584832015404e-11
11
990.5889942225702
21
856.5574674441659
31
1.3704345904573871e-11
  0
LINE
 8
Agrupar#17
10
990.5889942225702
20
856.5574674441659
30
1.3704345904573871e-11
11
989.9860418353264
21
856.3077163879042
31
1.3433629122249273e-11
  0
LINE
 8
Agrupar#17
10
989.9860418353264
20
856.3077163879042
30
1.3433629122249273e-11
11
989.4682748823602
21
855.9104198314096
31
1.334339019480774e-11
  0
LINE
 8
Agrupar#17
10
989.4682748823602
20
855.9104198314096
30
1.334339019480774e-11
11
989.0709783258653
21
855.3926528784432
31
1.3433629122249273e-11
  0
LINE
 8
Agrupar#17
10
989.0709783258653
20
855.3926528784432
30
1.3433629122249273e-11
11
988.821227269604
21
854.7897004911997
31
1.334339019480774e-11
  0
LINE
 8
Agrupar#17
10
988.821227269604
20
854.7897004911997
30
1.334339019480774e-11
11
988.7360418353267
21
854.1426528784431
31
1.3253151267366207e-11
  0
LINE
 8
Agrupar#17
10
988.7360418353267
20
854.1426528784431
30
1.3253151267366207e-11
11
988.821227269604
21
853.4956052656868
31
1.3253151267366207e-11
  0
LINE
 8
Agrupar#17
10
988.821227269604
20
853.4956052656868
30
1.3253151267366207e-11
11
989.0709783258657
21
852.8926528784433
31
1.3253151267366207e-11
  0
LINE
 8
Agrupar#17
10
989.0709783258657
20
852.8926528784433
30
1.3253151267366207e-11
11
989.4682748823602
21
852.3748859254769
31
1.3162912339924674e-11
  0
LINE
 8
Agrupar#17
10
989.4682748823602
20
852.3748859254769
30
1.3162912339924674e-11
11
989.9860418353268
21
851.9775893689823
31
1.3162912339924674e-11
  0
LINE
 8
Agrupar#17
10
989.9860418353268
20
851.9775893689823
30
1.3162912339924674e-11
11
990.5889942225702
21
851.7278383127206
31
1.334339019480774e-11
  0
LINE
 8
Agrupar#17
10
949.8212272696035
20
854.7897004912004
30
7.929054548315777e-12
11
949.7360418353262
21
854.1426528784441
31
8.01929347575731e-12
  0
LINE
 8
Agrupar#17
10
949.7360418353262
20
854.1426528784441
30
8.01929347575731e-12
11
949.8212272696035
21
853.4956052656879
31
8.01929347575731e-12
  0
LINE
 8
Agrupar#17
10
949.8212272696035
20
853.4956052656879
30
8.01929347575731e-12
11
950.0709783258652
21
852.8926528784441
31
8.109532403198843e-12
  0
LINE
 8
Agrupar#17
10
950.0709783258652
20
852.8926528784441
30
8.109532403198843e-12
11
950.4682748823598
21
852.3748859254779
31
8.109532403198843e-12
  0
LINE
 8
Agrupar#17
10
950.4682748823598
20
852.3748859254779
30
8.109532403198843e-12
11
950.9860418353262
21
851.977589368983
31
8.109532403198843e-12
  0
LINE
 8
Agrupar#17
10
950.9860418353262
20
851.977589368983
30
8.109532403198843e-12
11
951.58899422257
21
851.7278383127217
31
8.38024918552344e-12
  0
LINE
 8
Agrupar#17
10
951.58899422257
20
851.7278383127217
30
8.38024918552344e-12
11
952.2360418353263
21
851.6426528784443
31
8.470488112964974e-12
  0
LINE
 8
Agrupar#17
10
952.2360418353263
20
851.6426528784443
30
8.470488112964974e-12
11
952.8830894480826
21
851.7278383127217
31
8.560727040406507e-12
  0
LINE
 8
Agrupar#17
10
952.8830894480826
20
851.7278383127217
30
8.560727040406507e-12
11
953.4860418353264
21
851.977589368983
31
8.470488112964974e-12
  0
LINE
 8
Agrupar#17
10
953.4860418353264
20
851.977589368983
30
8.470488112964974e-12
11
954.0038087882925
21
852.3748859254779
31
8.65096596784804e-12
  0
LINE
 8
Agrupar#17
10
954.0038087882925
20
852.3748859254779
30
8.65096596784804e-12
11
954.4011053447874
21
852.8926528784441
31
8.65096596784804e-12
  0
LINE
 8
Agrupar#17
10
954.4011053447874
20
852.8926528784441
30
8.65096596784804e-12
11
954.6508564010492
21
853.4956052656879
31
8.65096596784804e-12
  0
LINE
 8
Agrupar#17
10
954.6508564010492
20
853.4956052656879
30
8.65096596784804e-12
11
954.7360418353261
21
854.1426528784441
31
8.560727040406507e-12
  0
LINE
 8
Agrupar#17
10
954.7360418353261
20
854.1426528784441
30
8.560727040406507e-12
11
954.6508564010488
21
854.7897004912007
31
8.560727040406507e-12
  0
LINE
 8
Agrupar#17
10
954.6508564010488
20
854.7897004912007
30
8.560727040406507e-12
11
954.4011053447874
21
855.3926528784442
31
8.470488112964974e-12
  0
LINE
 8
Agrupar#17
10
954.4011053447874
20
855.3926528784442
30
8.470488112964974e-12
11
954.0038087882925
21
855.9104198314108
31
8.470488112964974e-12
  0
LINE
 8
Agrupar#17
10
954.0038087882925
20
855.9104198314108
30
8.470488112964974e-12
11
953.486041835326
21
856.3077163879053
31
8.199771330640376e-12
  0
LINE
 8
Agrupar#17
10
953.486041835326
20
856.3077163879053
30
8.199771330640376e-12
11
952.8830894480826
21
856.557467444167
31
8.199771330640376e-12
  0
LINE
 8
Agrupar#17
10
952.8830894480826
20
856.557467444167
30
8.199771330640376e-12
11
952.236041835326
21
856.6426528784443
31
8.109532403198843e-12
  0
LINE
 8
Agrupar#17
10
952.236041835326
20
856.6426528784443
30
8.109532403198843e-12
11
951.5889942225697
21
856.557467444167
31
8.01929347575731e-12
  0
LINE
 8
Agrupar#17
10
951.5889942225697
20
856.557467444167
30
8.01929347575731e-12
11
950.9860418353262
21
856.3077163879053
31
7.838815620874244e-12
  0
LINE
 8
Agrupar#17
10
950.9860418353262
20
856.3077163879053
30
7.838815620874244e-12
11
950.4682748823598
21
855.9104198314103
31
7.929054548315777e-12
  0
LINE
 8
Agrupar#17
10
950.4682748823598
20
855.9104198314103
30
7.929054548315777e-12
11
950.0709783258652
21
855.3926528784442
31
7.929054548315777e-12
  0
LINE
 8
Agrupar#17
10
950.0709783258652
20
855.3926528784442
30
7.929054548315777e-12
11
949.8212272696035
21
854.7897004912004
31
7.929054548315777e-12
  0
LINE
 8
Agrupar#17
10
1032.6508564010492
20
853.4956052656861
30
1.9569876188273496e-11
11
1032.7360418353264
21
854.1426528784424
31
1.9750354043156562e-11
  0
LINE
 8
Agrupar#17
10
1032.7360418353264
20
854.1426528784424
30
1.9750354043156562e-11
11
1032.6508564010492
21
854.7897004911986
31
1.993083189803963e-11
  0
LINE
 8
Agrupar#17
10
1032.6508564010492
20
854.7897004911986
30
1.993083189803963e-11
11
1032.4011053447873
21
855.3926528784424
31
1.9840592970598097e-11
  0
LINE
 8
Agrupar#17
10
1032.4011053447873
20
855.3926528784424
30
1.9840592970598097e-11
11
1032.0038087882929
21
855.9104198314086
31
2.0111309752922695e-11
  0
LINE
 8
Agrupar#17
10
1032.0038087882929
20
855.9104198314086
30
2.0111309752922695e-11
11
1031.4860418353264
21
856.3077163879035
31
2.0111309752922695e-11
  0
LINE
 8
Agrupar#17
10
1031.4860418353264
20
856.3077163879035
30
2.0111309752922695e-11
11
1030.8830894480825
21
856.5574674441651
31
1.993083189803963e-11
  0
LINE
 8
Agrupar#17
10
1030.8830894480825
20
856.5574674441651
30
1.993083189803963e-11
11
1030.2360418353262
21
856.6426528784425
31
2.002107082548116e-11
  0
LINE
 8
Agrupar#17
10
1030.2360418353262
20
856.6426528784425
30
2.002107082548116e-11
11
1029.58899422257
21
856.5574674441651
31
1.993083189803963e-11
  0
LINE
 8
Agrupar#17
10
1029.58899422257
20
856.5574674441651
30
1.993083189803963e-11
11
1028.9860418353262
21
856.3077163879035
31
1.9840592970598097e-11
  0
LINE
 8
Agrupar#17
10
1028.9860418353262
20
856.3077163879035
30
1.9840592970598097e-11
11
1028.46827488236
21
855.9104198314086
31
1.9569876188273496e-11
  0
LINE
 8
Agrupar#17
10
1028.46827488236
20
855.9104198314086
30
1.9569876188273496e-11
11
1028.0709783258656
21
855.3926528784424
31
1.9569876188273496e-11
  0
LINE
 8
Agrupar#17
10
1028.0709783258656
20
855.3926528784424
30
1.9569876188273496e-11
11
1027.8212272696037
21
854.7897004911986
31
1.9389398333390433e-11
  0
LINE
 8
Agrupar#17
10
1027.8212272696037
20
854.7897004911986
30
1.9389398333390433e-11
11
1027.7360418353264
21
854.1426528784424
31
1.9208920478507367e-11
  0
LINE
 8
Agrupar#17
10
1027.7360418353264
20
854.1426528784424
30
1.9208920478507367e-11
11
1027.8212272696037
21
853.4956052656861
31
1.90284426236243e-11
  0
LINE
 8
Agrupar#17
10
1027.8212272696037
20
853.4956052656861
30
1.90284426236243e-11
11
1028.0709783258656
21
852.8926528784423
31
1.90284426236243e-11
  0
LINE
 8
Agrupar#17
10
1028.0709783258656
20
852.8926528784423
30
1.90284426236243e-11
11
1028.46827488236
21
852.3748859254757
31
1.8757725841299704e-11
  0
LINE
 8
Agrupar#17
10
1028.46827488236
20
852.3748859254757
30
1.8757725841299704e-11
11
1028.9860418353267
21
851.9775893689812
31
1.893820369618277e-11
  0
LINE
 8
Agrupar#17
10
1028.9860418353267
20
851.9775893689812
30
1.893820369618277e-11
11
1029.58899422257
21
851.7278383127195
31
1.893820369618277e-11
  0
LINE
 8
Agrupar#17
10
1029.58899422257
20
851.7278383127195
30
1.893820369618277e-11
11
1030.2360418353267
21
851.6426528784422
31
1.893820369618277e-11
  0
LINE
 8
Agrupar#17
10
1030.2360418353267
20
851.6426528784422
30
1.893820369618277e-11
11
1030.883089448083
21
851.7278383127195
31
1.893820369618277e-11
  0
LINE
 8
Agrupar#17
10
1030.883089448083
20
851.7278383127195
30
1.893820369618277e-11
11
1031.4860418353264
21
851.9775893689812
31
1.9208920478507367e-11
  0
LINE
 8
Agrupar#17
10
1031.4860418353264
20
851.9775893689812
30
1.9208920478507367e-11
11
1032.0038087882929
21
852.3748859254757
31
1.92991594059489e-11
  0
LINE
 8
Agrupar#17
10
1032.0038087882929
20
852.3748859254757
30
1.92991594059489e-11
11
1032.4011053447878
21
852.8926528784423
31
1.92991594059489e-11
  0
LINE
 8
Agrupar#17
10
1032.4011053447878
20
852.8926528784423
30
1.92991594059489e-11
11
1032.6508564010492
21
853.4956052656861
31
1.9569876188273496e-11
  0
LINE
 8
Agrupar#17
10
898.7360418353287
20
830.6426528784303
30
5.5828424348359266e-12
11
880.7360418353288
21
830.6426528784303
31
5.221886725069796e-12
  0
LINE
 8
Agrupar#17
10
866.2360418353278
20
809.6426528784268
30
5.5828424348359266e-12
11
869.2360418353279
21
809.6426528784261
31
5.04140887018673e-12
  0
LINE
 8
Agrupar#17
10
880.7360418353288
20
830.6426528784303
30
5.221886725069796e-12
11
880.7360418353288
21
833.6426528784297
31
4.680453160420599e-12
  0
LINE
 8
Agrupar#17
10
869.2360418353279
20
809.6426528784261
30
5.04140887018673e-12
11
869.2360418353279
21
791.6426528784382
31
5.5828424348359266e-12
  0
LINE
 8
Agrupar#17
10
1113.2360418353283
20
809.6426528784269
30
6.1242759994851224e-12
11
1116.2360418353283
21
809.6426528784272
31
6.1242759994851224e-12
  0
LINE
 8
Agrupar#17
10
1116.2360418353283
20
833.6426528784311
30
6.1242759994851224e-12
11
1116.2360418353283
21
809.6426528784272
31
6.1242759994851224e-12
  0
LINE
 8
Agrupar#17
10
1098.7360418353292
20
833.6426528784311
30
6.846187419017384e-12
11
1116.2360418353283
21
833.6426528784311
31
6.1242759994851224e-12
  0
LINE
 8
Agrupar#17
10
1098.7360418353292
20
830.6426528784315
30
6.485231709251254e-12
11
1098.7360418353292
21
833.6426528784311
31
6.846187419017384e-12
  0
LINE
 8
Agrupar#17
10
1098.7360418353292
20
830.6426528784315
30
6.485231709251254e-12
11
1080.7360418353292
21
830.6426528784315
31
6.1242759994851224e-12
  0
LINE
 8
Agrupar#17
10
1080.7360418353292
20
830.6426528784315
30
6.1242759994851224e-12
11
1080.7360418353292
21
833.6426528784308
31
6.1242759994851224e-12
  0
LINE
 8
Agrupar#17
10
1066.2360418353283
20
833.6426528784413
30
1.6231035872936788e-11
11
1080.7360418353292
21
833.6426528784308
31
6.1242759994851224e-12
  0
LINE
 8
Agrupar#17
10
1066.2360418353283
20
767.6426528784308
30
5.763320289718992e-12
11
1080.7360418353285
21
767.6426528784309
31
5.763320289718992e-12
  0
LINE
 8
Agrupar#17
10
1080.7360418353285
20
770.6426528784309
30
7.207143128783516e-12
11
1080.7360418353285
21
767.6426528784309
31
5.763320289718992e-12
  0
LINE
 8
Agrupar#17
10
1098.7360418353285
20
770.6426528784309
30
7.207143128783516e-12
11
1080.7360418353285
21
770.6426528784309
31
7.207143128783516e-12
  0
LINE
 8
Agrupar#17
10
1098.7360418353285
20
770.6426528784309
30
7.207143128783516e-12
11
1098.7360418353285
21
767.6426528784309
31
6.485231709251254e-12
  0
LINE
 8
Agrupar#17
10
1098.7360418353285
20
767.6426528784309
30
6.485231709251254e-12
11
1116.236041835328
21
767.6426528784309
31
6.1242759994851224e-12
  0
LINE
 8
Agrupar#17
10
1116.2360418353283
20
791.6426528784673
30
6.1242759994851224e-12
11
1116.236041835328
21
767.6426528784309
31
6.1242759994851224e-12
  0
LINE
 8
Agrupar#17
10
1113.2360418353283
20
791.6426528784654
30
6.1242759994851224e-12
11
1116.2360418353283
21
791.6426528784673
31
6.1242759994851224e-12
  0
LINE
 8
Agrupar#17
10
1113.2360418353283
20
791.6426528784654
30
6.1242759994851224e-12
11
1113.2360418353283
21
809.6426528784269
31
6.1242759994851224e-12
  0
LINE
 8
Agrupar#17
10
898.7360418353287
20
830.6426528784303
30
5.5828424348359266e-12
11
898.7360418353289
21
833.64265287843
31
5.402364579952861e-12
  0
LINE
 8
Agrupar#17
10
898.7360418353289
20
833.64265287843
30
5.402364579952861e-12
11
916.236041835328
21
833.64265287843
31
5.04140887018673e-12
  0
LINE
 8
Agrupar#17
10
866.2360418353278
20
833.64265287843
30
5.5828424348359266e-12
11
880.7360418353288
21
833.6426528784297
31
4.680453160420599e-12
  0
LINE
 8
Agrupar#17
10
866.2360418353278
20
809.6426528784268
30
5.5828424348359266e-12
11
866.2360418353278
21
833.64265287843
31
5.5828424348359266e-12
  0
LINE
 8
Agrupar#17
10
898.736041835328
20
767.6426528784299
30
5.943798144602057e-12
11
916.2360418353284
21
767.6426528784308
31
5.763320289718992e-12
  0
LINE
 8
Agrupar#17
10
898.736041835328
20
770.6426528784299
30
6.665709564134319e-12
11
898.736041835328
21
767.6426528784299
31
5.943798144602057e-12
  0
LINE
 8
Agrupar#17
10
898.736041835328
20
770.6426528784299
30
6.665709564134319e-12
11
880.7360418353279
21
770.6426528784299
31
6.665709564134319e-12
  0
LINE
 8
Agrupar#17
10
880.7360418353279
20
770.6426528784299
30
6.665709564134319e-12
11
880.7360418353279
21
767.6426528784299
31
5.221886725069796e-12
  0
LINE
 8
Agrupar#17
10
866.2360418353278
20
767.6426528784299
30
5.5828424348359266e-12
11
880.7360418353279
21
767.6426528784299
31
5.221886725069796e-12
  0
LINE
 8
Agrupar#17
10
866.2360418353278
20
767.6426528784299
30
5.5828424348359266e-12
11
866.2360418353278
21
791.6426528784364
31
5.5828424348359266e-12
  0
LINE
 8
Agrupar#17
10
866.2360418353278
20
791.6426528784364
30
5.5828424348359266e-12
11
869.2360418353279
21
791.6426528784382
31
5.5828424348359266e-12
  0
LINE
 8
Agrupar#17
10
883.3630115455173
20
791.6426528784392
30
3.283499852217881e-11
11
883.3630115455173
21
788.6426528784442
31
3.283499852217881e-11
  0
LINE
 8
Agrupar#17
10
873.8630115455112
20
791.6426528784395
30
2.886448571475137e-11
11
883.3630115455173
21
791.6426528784392
31
3.283499852217881e-11
  0
LINE
 8
Agrupar#17
10
873.8630115455112
20
788.6426528784446
30
3.283499852217881e-11
11
873.8630115455112
21
791.6426528784395
31
2.886448571475137e-11
  0
LINE
 8
Agrupar#17
10
883.3630115455173
20
788.6426528784442
30
3.283499852217881e-11
11
873.8630115455112
21
788.6426528784446
31
3.283499852217881e-11
  0
LINE
 8
Agrupar#17
10
874.1130115455119
20
796.6426528784402
30
-8.032461648950322e-11
11
878.1130115455119
21
796.6426528784406
31
-8.032461648950322e-11
  0
LINE
 8
Agrupar#17
10
878.1130115455119
20
796.6426528784406
30
-8.032461648950322e-11
11
878.1130115455119
21
804.6426528784406
31
-8.032461648950322e-11
  0
LINE
 8
Agrupar#17
10
878.1130115455119
20
804.6426528784406
30
-8.032461648950322e-11
11
874.1130115455119
21
804.6426528784406
31
-8.122700576391855e-11
  0
LINE
 8
Agrupar#17
10
874.1130115455119
20
804.6426528784406
30
-8.122700576391855e-11
11
874.1130115455119
21
796.6426528784402
31
-8.032461648950322e-11
  0
LINE
 8
Agrupar#17
10
883.3630115455054
20
812.6426528784356
30
2.200632722919488e-11
11
883.3630115455054
21
809.6426528784275
31
2.1464893664545685e-11
  0
LINE
 8
Agrupar#17
10
873.8630115455118
20
812.6426528784359
30
2.7059707165920715e-11
11
883.3630115455054
21
812.6426528784356
31
2.200632722919488e-11
  0
LINE
 8
Agrupar#17
10
873.8630115455118
20
809.642652878428
30
2.1464893664545685e-11
11
873.8630115455118
21
812.6426528784359
31
2.7059707165920715e-11
  0
LINE
 8
Agrupar#17
10
883.3630115455054
20
809.6426528784275
30
2.1464893664545685e-11
11
873.8630115455118
21
809.642652878428
31
2.1464893664545685e-11
  0
LINE
 8
Agrupar#17
10
1036.2360418353321
20
660.6426528784317
30
5.763320289718992e-12
11
1054.2360418353323
21
660.6426528784317
31
5.763320289718992e-12
  0
LINE
 8
Agrupar#17
10
1000.2360418353323
20
660.6426528784317
30
5.763320289718992e-12
11
1018.2360418353322
21
660.6426528784317
31
5.763320289718992e-12
  0
LINE
 8
Agrupar#17
10
964.2360418353322
20
660.6426528784317
30
5.763320289718992e-12
11
964.2360418353322
21
657.6426528784316
31
5.763320289718992e-12
  0
LINE
 8
Agrupar#17
10
946.236041835332
20
657.6426528784316
30
5.763320289718992e-12
11
964.2360418353322
21
657.6426528784316
31
5.763320289718992e-12
  0
LINE
 8
Agrupar#17
10
946.236041835332
20
660.6426528784317
30
5.763320289718992e-12
11
946.236041835332
21
657.6426528784316
31
5.763320289718992e-12
  0
LINE
 8
Agrupar#17
10
937.2360418353319
20
660.6426528784317
30
5.763320289718992e-12
11
946.236041835332
21
660.6426528784317
31
5.763320289718992e-12
  0
LINE
 8
Agrupar#17
10
913.2360418353323
20
681.6426528784301
30
5.763320289718992e-12
11
913.2360418353319
21
699.6426528784036
31
5.774600155649183e-12
  0
LINE
 8
Agrupar#17
10
928.2360418353314
20
660.6426528784317
30
5.763320289718992e-12
11
937.2360418353319
21
660.6426528784317
31
5.763320289718992e-12
  0
LINE
 8
Agrupar#17
10
982.2360418353325
20
657.6426528784316
30
5.763320289718992e-12
11
1000.2360418353323
21
657.6426528784316
31
5.763320289718992e-12
  0
LINE
 8
Agrupar#17
10
1054.2360418353323
20
660.6426528784317
30
5.763320289718992e-12
11
1054.2360418353323
21
657.6426528784316
31
5.763320289718992e-12
  0
LINE
 8
Agrupar#17
10
1066.2360418353321
20
657.6426528784316
30
5.763320289718992e-12
11
1066.2360418353328
21
681.6426528784301
31
5.763320289718992e-12
  0
LINE
 8
Agrupar#17
10
928.2360418353314
20
660.6426528784317
30
5.763320289718992e-12
11
928.2360418353314
21
657.6426528784316
31
5.763320289718992e-12
  0
LINE
 8
Agrupar#17
10
1036.2360418353321
20
660.6426528784317
30
5.763320289718992e-12
11
1036.2360418353321
21
657.6426528784316
31
5.763320289718992e-12
  0
LINE
 8
Agrupar#17
10
931.2360418353885
20
702.642652878416
30
6.03403707204359e-12
11
931.2360418353885
21
699.6426528784181
31
1.9056061415934682e-12
  0
LINE
 8
Agrupar#17
10
1018.2360418353322
20
657.6426528784316
30
5.763320289718992e-12
11
1036.2360418353321
21
657.6426528784316
31
5.763320289718992e-12
  0
LINE
 8
Agrupar#17
10
916.2360418353312
20
681.6426528784319
30
5.763320289718992e-12
11
916.2360418353317
21
657.6426528784316
31
5.763320289718992e-12
  0
LINE
 8
Agrupar#17
10
1066.2360418353326
20
699.6426528784318
30
5.763320289718992e-12
11
1066.2360418353326
21
711.6426528784367
31
5.763320289718992e-12
  0
LINE
 8
Agrupar#17
10
961.2360418353946
20
699.6426528784181
30
5.830999485300141e-12
11
961.2360418353946
21
702.642652878416
31
6.03403707204359e-12
  0
LINE
 8
Agrupar#17
10
1066.2360418353328
20
681.6426528784301
30
5.763320289718992e-12
11
1069.236041835332
21
681.6426528784319
31
5.763320289718992e-12
  0
LINE
 8
Agrupar#17
10
1018.2360418353322
20
660.6426528784317
30
5.763320289718992e-12
11
1018.2360418353322
21
657.6426528784316
31
5.763320289718992e-12
  0
LINE
 8
Agrupar#17
10
916.2360418353317
20
723.6426528784307
30
5.04140887018673e-12
11
916.236041835332
21
699.6426528784044
31
5.774600155649183e-12
  0
LINE
 8
Agrupar#17
10
1000.2360418353323
20
660.6426528784317
30
5.763320289718992e-12
11
1000.2360418353323
21
657.6426528784316
31
5.763320289718992e-12
  0
LINE
 8
Agrupar#17
10
982.2360418353325
20
660.6426528784317
30
5.763320289718992e-12
11
982.2360418353325
21
657.6426528784316
31
5.763320289718992e-12
  0
LINE
 8
Agrupar#17
10
916.2360418353312
20
681.6426528784319
30
5.763320289718992e-12
11
913.2360418353323
21
681.6426528784301
31
5.763320289718992e-12
  0
LINE
 8
Agrupar#17
10
916.236041835332
20
699.6426528784044
30
5.774600155649183e-12
11
913.2360418353319
21
699.6426528784036
31
5.774600155649183e-12
  0
LINE
 8
Agrupar#17
10
928.2360418353314
20
723.6426528784318
30
5.763320289718992e-12
11
916.2360418353317
21
723.6426528784307
31
5.04140887018673e-12
  0
LINE
 8
Agrupar#17
10
928.2360418353314
20
723.6426528784318
30
5.763320289718992e-12
11
928.2360418353314
21
720.6426528784317
31
5.763320289718992e-12
  0
LINE
 8
Agrupar#17
10
946.2360418353317
20
720.6426528784328
30
9.01192167761417e-12
11
928.2360418353314
21
720.6426528784317
31
5.763320289718992e-12
  0
LINE
 8
Agrupar#17
10
946.2360418353313
20
723.6426528784328
30
9.3728773873803e-12
11
946.2360418353317
21
720.6426528784328
31
9.01192167761417e-12
  0
LINE
 8
Agrupar#17
10
964.2360418353297
20
723.6426528784343
30
1.0455744516678693e-11
11
946.2360418353313
21
723.6426528784328
31
9.3728773873803e-12
  0
LINE
 8
Agrupar#17
10
964.2360418353297
20
723.6426528784343
30
1.0455744516678693e-11
11
964.2360418353315
21
720.6426528784342
31
1.0455744516678693e-11
  0
LINE
 8
Agrupar#17
10
982.2360418353318
20
720.6426528784357
30
1.1899567355743216e-11
11
964.2360418353315
21
720.6426528784342
31
1.0455744516678693e-11
  0
LINE
 8
Agrupar#17
10
982.23604183533
20
723.6426528784358
30
1.1899567355743216e-11
11
982.2360418353318
21
720.6426528784357
31
1.1899567355743216e-11
  0
LINE
 8
Agrupar#17
10
1000.2360418353302
20
723.6426528784372
30
1.298243448504161e-11
11
982.23604183533
21
723.6426528784358
31
1.1899567355743216e-11
  0
LINE
 8
Agrupar#17
10
1000.2360418353302
20
723.6426528784372
30
1.298243448504161e-11
11
1000.236041835332
21
720.6426528784372
31
1.298243448504161e-11
  0
LINE
 8
Agrupar#17
10
1018.2360418353319
20
720.6426528784382
30
1.4426257324106134e-11
11
1000.236041835332
21
720.6426528784372
31
1.298243448504161e-11
  0
LINE
 8
Agrupar#17
10
1018.2360418353301
20
723.6426528784383
30
1.4426257324106134e-11
11
1018.2360418353319
21
720.6426528784382
31
1.4426257324106134e-11
  0
LINE
 8
Agrupar#17
10
1036.2360418353296
20
723.6426528784397
30
1.5870080163170656e-11
11
1018.2360418353301
21
723.6426528784383
31
1.4426257324106134e-11
  0
LINE
 8
Agrupar#17
10
1036.2360418353296
20
723.6426528784397
30
1.5870080163170656e-11
11
1036.236041835331
21
720.6426528784397
31
1.5509124453404527e-11
  0
LINE
 8
Agrupar#17
10
1054.2360418353312
20
720.6426528784411
30
1.695294729246905e-11
11
1036.236041835331
21
720.6426528784397
31
1.5509124453404527e-11
  0
LINE
 8
Agrupar#17
10
1054.2360418353298
20
723.6426528784411
30
1.695294729246905e-11
11
1054.2360418353312
21
720.6426528784411
31
1.695294729246905e-11
  0
LINE
 8
Agrupar#17
10
1054.2360418353298
20
723.6426528784411
30
1.695294729246905e-11
11
1066.23604183533
21
723.6426528784418
31
1.6231035872936788e-11
  0
LINE
 8
Agrupar#17
10
1066.2360418353326
20
711.6426528784367
30
5.763320289718992e-12
11
1066.23604183533
21
723.6426528784418
31
1.6231035872936788e-11
  0
LINE
 8
Agrupar#17
10
1066.2360418353326
20
699.6426528784318
30
5.763320289718992e-12
11
1069.2360418353326
21
699.6426528784311
31
5.763320289718992e-12
  0
LINE
 8
Agrupar#17
10
1069.236041835332
20
681.6426528784319
30
5.763320289718992e-12
11
1069.2360418353326
21
699.6426528784311
31
5.763320289718992e-12
  0
LINE
 8
Agrupar#17
10
1054.2360418353323
20
657.6426528784316
30
5.763320289718992e-12
11
1066.2360418353321
21
657.6426528784316
31
5.763320289718992e-12
  0
LINE
 8
Agrupar#17
10
973.2360418353323
20
660.6426528784317
30
5.763320289718992e-12
11
982.2360418353325
21
660.6426528784317
31
5.763320289718992e-12
  0
LINE
 8
Agrupar#17
10
964.2360418353322
20
660.6426528784317
30
5.763320289718992e-12
11
973.2360418353323
21
660.6426528784317
31
5.763320289718992e-12
  0
LINE
 8
Agrupar#17
10
916.2360418353317
20
657.6426528784316
30
5.763320289718992e-12
11
928.2360418353314
21
657.6426528784316
31
5.763320289718992e-12
  0
LINE
 8
Agrupar#17
10
961.2360418353946
20
702.642652878416
30
6.03403707204359e-12
11
931.2360418353885
21
702.642652878416
31
6.03403707204359e-12
  0
LINE
 8
Agrupar#17
10
931.2360418353885
20
699.6426528784181
30
1.9056061415934682e-12
11
961.2360418353946
21
699.6426528784181
31
5.830999485300141e-12
  0
LINE
 8
Agrupar#17
10
931.236041835382
20
681.6426528784175
30
-4.1178422651288404e-12
11
961.2360418353878
21
681.6426528784175
31
-4.1178422651288404e-12
  0
LINE
 8
Agrupar#17
10
931.236041835382
20
678.6426528784124
30
-4.309599985942098e-12
11
931.236041835382
21
681.6426528784175
31
-4.1178422651288404e-12
  0
LINE
 8
Agrupar#17
10
961.2360418353878
20
678.6426528784124
30
1.0082759276281384e-13
11
931.236041835382
21
678.6426528784124
31
-4.309599985942098e-12
  0
LINE
 8
Agrupar#17
10
961.2360418353878
20
681.6426528784175
30
-4.1178422651288404e-12
11
961.2360418353878
21
678.6426528784124
31
1.0082759276281384e-13
  0
LINE
 8
Agrupar#17
10
992.9860418352868
20
741.1115639651985
30
1.4426257324106134e-11
11
992.1419084931457
21
740.7619124864323
31
1.43360183966646e-11
  0
LINE
 8
Agrupar#17
10
994.2671307485323
20
742.392652878444
30
1.43360183966646e-11
11
993.7109155694397
21
741.6677791442911
31
1.4426257324106134e-11
  0
LINE
 8
Agrupar#17
10
1027.204952922063
20
745.8926528784431
30
1.9569876188273496e-11
11
1027.7611681011551
21
746.617526612596
31
1.9750354043156562e-11
  0
LINE
 8
Agrupar#17
10
1030.2360418353082
20
747.6426528784431
30
2.0201548680364226e-11
11
1031.1419084931672
21
747.5233932704549
31
2.029178760780576e-11
  0
LINE
 8
Agrupar#17
10
916.2360418353317
20
753.142652878446
30
3.4898464322702884e-13
11
913.2360418353297
21
753.142652878446
31
3.236630321356076e-12
  0
LINE
 8
Agrupar#17
10
916.2360418353284
20
767.6426528784308
30
5.763320289718992e-12
11
916.2360418353317
21
753.142652878446
31
3.4898464322702884e-13
  0
LINE
 8
Agrupar#17
10
1028.4860418353082
20
747.1737417916886
30
2.002107082548116e-11
11
1029.3301751774495
21
747.5233932704549
31
2.0111309752922695e-11
  0
LINE
 8
Agrupar#17
10
1027.7611681011551
20
746.617526612596
30
1.9750354043156562e-11
11
1028.4860418353082
21
747.1737417916886
31
2.002107082548116e-11
  0
LINE
 8
Agrupar#17
10
916.2360418353323
20
735.1426528784465
30
-1.1971066539102054e-14
11
916.2360418353317
21
723.6426528784307
31
5.04140887018673e-12
  0
LINE
 8
Agrupar#17
10
1026.7360418353087
20
744.142652878443
30
1.9118681551065833e-11
11
1026.855301443297
21
745.0485195363019
31
1.92991594059489e-11
  0
LINE
 8
Agrupar#17
10
1066.236041835332
20
735.1426528784423
30
2.3450150068259406e-11
11
1069.2360418353312
21
735.1426528784423
31
2.4893972907323928e-11
  0
LINE
 8
Agrupar#17
10
1066.236041835332
20
735.1426528784423
30
2.3450150068259406e-11
11
1066.23604183533
21
723.6426528784418
31
1.6231035872936788e-11
  0
LINE
 8
Agrupar#17
10
1029.3301751774495
20
747.5233932704549
30
2.0111309752922695e-11
11
1030.2360418353082
21
747.6426528784431
31
2.0201548680364226e-11
  0
LINE
 8
Agrupar#17
10
1066.2360418353283
20
767.6426528784308
30
5.763320289718992e-12
11
1066.23604183533
21
753.1426528784417
31
2.3811105778025535e-11
  0
LINE
 8
Agrupar#17
10
1069.2360418353294
20
753.1426528784422
30
2.561588432685619e-11
11
1069.2360418353312
21
735.1426528784423
31
2.4893972907323928e-11
  0
LINE
 8
Agrupar#17
10
1033.2671307485537
20
745.8926528784432
30
2.002107082548116e-11
11
1033.61678222732
21
745.048519536302
31
1.993083189803963e-11
  0
LINE
 8
Agrupar#17
10
1026.855301443297
20
745.0485195363019
30
1.92991594059489e-11
11
1027.204952922063
21
745.8926528784431
31
1.9569876188273496e-11
  0
LINE
 8
Agrupar#17
10
993.7109155694397
20
741.6677791442911
30
1.4426257324106134e-11
11
992.9860418352868
21
741.1115639651985
31
1.4426257324106134e-11
  0
LINE
 8
Agrupar#17
10
994.6167822272987
20
743.2367862205853
30
1.4245779469223068e-11
11
994.2671307485323
21
742.392652878444
31
1.43360183966646e-11
  0
LINE
 8
Agrupar#17
10
1031.9860418353082
20
747.1737417916887
30
2.029178760780576e-11
11
1032.7109155694611
21
746.6175266125961
31
2.0201548680364226e-11
  0
LINE
 8
Agrupar#17
10
1033.61678222732
20
745.048519536302
30
1.993083189803963e-11
11
1033.7360418353085
21
744.1426528784433
31
1.966011511571503e-11
  0
LINE
 8
Agrupar#17
10
916.2360418353323
20
735.1426528784465
30
-1.1971066539102054e-14
11
913.2360418353305
21
735.1426528784461
31
2.875674611589945e-12
  0
LINE
 8
Agrupar#17
10
994.7360418352871
20
744.142652878444
30
1.4065301614340001e-11
11
994.6167822272987
21
743.2367862205853
31
1.4245779469223068e-11
  0
LINE
 8
Agrupar#17
10
1066.23604183533
20
753.1426528784417
30
2.3811105778025535e-11
11
1069.2360418353294
21
753.1426528784422
31
2.561588432685619e-11
  0
LINE
 8
Agrupar#17
10
1032.7109155694611
20
746.6175266125961
30
2.0201548680364226e-11
11
1033.2671307485537
21
745.8926528784432
31
2.002107082548116e-11
  0
LINE
 8
Agrupar#17
10
1031.1419084931672
20
747.5233932704549
30
2.029178760780576e-11
11
1031.9860418353082
21
747.1737417916887
31
2.029178760780576e-11
  0
LINE
 8
Agrupar#17
10
948.8553014432966
20
743.2367862205862
30
7.929054548315777e-12
11
948.7360418353084
21
744.1426528784451
31
7.838815620874244e-12
  0
LINE
 8
Agrupar#17
10
1030.2360418353085
20
740.6426528784432
30
1.8577247986416638e-11
11
1029.3301751774495
21
740.7619124864314
31
1.8487009058975106e-11
  0
LINE
 8
Agrupar#17
10
954.7109155694612
20
741.6677791442921
30
8.921682750172637e-12
11
953.9860418353082
21
741.1115639651995
31
8.65096596784804e-12
  0
LINE
 8
Agrupar#17
10
992.9860418352871
20
747.1737417916896
30
1.334339019480774e-11
11
993.7109155694397
21
746.617526612597
31
1.3523868049690806e-11
  0
LINE
 8
Agrupar#17
10
1033.2671307485537
20
742.3926528784432
30
1.9208920478507367e-11
11
1032.7109155694611
21
741.6677791442903
31
1.90284426236243e-11
  0
LINE
 8
Agrupar#17
10
950.4860418353084
20
741.1115639651995
30
8.109532403198843e-12
11
949.7611681011552
21
741.6677791442921
31
8.199771330640376e-12
  0
LINE
 8
Agrupar#17
10
949.7611681011552
20
741.6677791442921
30
8.199771330640376e-12
11
949.2049529220627
21
742.392652878445
31
8.01929347575731e-12
  0
LINE
 8
Agrupar#17
10
948.8553014432966
20
745.0485195363038
30
7.748576693432712e-12
11
949.2049529220627
21
745.892652878445
31
7.748576693432712e-12
  0
LINE
 8
Agrupar#17
10
955.6167822273205
20
745.048519536304
30
8.831443822731104e-12
11
955.7360418353086
21
744.1426528784451
31
8.921682750172637e-12
  0
LINE
 8
Agrupar#17
10
955.2671307485542
20
745.892652878445
30
8.741204895289571e-12
11
955.6167822273205
21
745.048519536304
31
8.831443822731104e-12
  0
LINE
 8
Agrupar#17
10
988.2049529220416
20
745.8926528784442
30
1.2892195557600077e-11
11
988.7611681011341
21
746.6175266125971
31
1.2801956630158544e-11
  0
LINE
 8
Agrupar#17
10
1033.7360418353085
20
744.1426528784433
30
1.966011511571503e-11
11
1033.61678222732
21
743.2367862205843
31
1.9479637260831965e-11
  0
LINE
 8
Agrupar#17
10
993.7109155694397
20
746.617526612597
30
1.3523868049690806e-11
11
994.2671307485326
21
745.892652878444
31
1.3704345904573871e-11
  0
LINE
 8
Agrupar#17
10
990.3301751774281
20
747.5233932704558
30
1.2892195557600077e-11
11
991.2360418352871
21
747.6426528784441
31
1.298243448504161e-11
  0
LINE
 8
Agrupar#17
10
948.7360418353084
20
744.1426528784451
30
7.838815620874244e-12
11
948.8553014432966
21
745.0485195363038
31
7.748576693432712e-12
  0
LINE
 8
Agrupar#17
10
953.1419084931672
20
740.7619124864333
30
8.741204895289571e-12
11
952.2360418353082
21
740.642652878445
31
8.65096596784804e-12
  0
LINE
 8
Agrupar#17
10
913.2360418353297
20
753.142652878446
30
3.236630321356076e-12
11
913.2360418353305
21
735.1426528784461
31
2.875674611589945e-12
  0
LINE
 8
Agrupar#17
10
987.8553014432752
20
743.2367862205854
30
1.334339019480774e-11
11
987.7360418352869
21
744.1426528784442
31
1.3162912339924674e-11
  0
LINE
 8
Agrupar#17
10
987.7360418352869
20
744.1426528784442
30
1.3162912339924674e-11
11
987.8553014432752
21
745.048519536303
31
1.298243448504161e-11
  0
LINE
 8
Agrupar#17
10
987.8553014432752
20
745.048519536303
30
1.298243448504161e-11
11
988.2049529220416
21
745.8926528784442
31
1.2892195557600077e-11
  0
LINE
 8
Agrupar#17
10
988.7611681011341
20
746.6175266125971
30
1.2801956630158544e-11
11
989.4860418352872
21
747.1737417916897
31
1.2621478775275479e-11
  0
LINE
 8
Agrupar#17
10
989.4860418352872
20
747.1737417916897
30
1.2621478775275479e-11
11
990.3301751774281
21
747.5233932704558
31
1.2892195557600077e-11
  0
LINE
 8
Agrupar#17
10
991.2360418352871
20
747.6426528784441
30
1.298243448504161e-11
11
992.141908493146
21
747.5233932704558
31
1.3162912339924674e-11
  0
LINE
 8
Agrupar#17
10
992.141908493146
20
747.5233932704558
30
1.3162912339924674e-11
11
992.9860418352871
21
747.1737417916896
31
1.334339019480774e-11
  0
LINE
 8
Agrupar#17
10
994.2671307485326
20
745.892652878444
30
1.3704345904573871e-11
11
994.6167822272987
21
745.0485195363028
31
1.3884823759456937e-11
  0
LINE
 8
Agrupar#17
10
994.6167822272987
20
745.0485195363028
30
1.3884823759456937e-11
11
994.7360418352871
21
744.142652878444
31
1.4065301614340001e-11
  0
LINE
 8
Agrupar#17
10
992.1419084931457
20
740.7619124864323
30
1.43360183966646e-11
11
991.2360418352868
21
740.6426528784441
31
1.4245779469223068e-11
  0
LINE
 8
Agrupar#17
10
991.2360418352868
20
740.6426528784441
30
1.4245779469223068e-11
11
990.3301751774281
21
740.7619124864324
31
1.4065301614340001e-11
  0
LINE
 8
Agrupar#17
10
990.3301751774281
20
740.7619124864324
30
1.4065301614340001e-11
11
989.4860418352868
21
741.1115639651986
31
1.3704345904573871e-11
  0
LINE
 8
Agrupar#17
10
989.4860418352868
20
741.1115639651986
30
1.3704345904573871e-11
11
988.7611681011338
21
741.6677791442912
31
1.3704345904573871e-11
  0
LINE
 8
Agrupar#17
10
988.7611681011338
20
741.6677791442912
30
1.3704345904573871e-11
11
988.2049529220412
21
742.3926528784442
31
1.3523868049690806e-11
  0
LINE
 8
Agrupar#17
10
988.2049529220412
20
742.3926528784442
30
1.3523868049690806e-11
11
987.8553014432752
21
743.2367862205854
31
1.334339019480774e-11
  0
LINE
 8
Agrupar#17
10
949.2049529220627
20
745.892652878445
30
7.748576693432712e-12
11
949.7611681011552
21
746.617526612598
31
7.838815620874244e-12
  0
LINE
 8
Agrupar#17
10
949.7611681011552
20
746.617526612598
30
7.838815620874244e-12
11
950.4860418353084
21
747.1737417916906
31
7.65833776599118e-12
  0
LINE
 8
Agrupar#17
10
950.4860418353084
20
747.1737417916906
30
7.65833776599118e-12
11
951.3301751774496
21
747.5233932704568
31
8.01929347575731e-12
  0
LINE
 8
Agrupar#17
10
951.3301751774496
20
747.5233932704568
30
8.01929347575731e-12
11
952.2360418353082
21
747.6426528784451
31
8.109532403198843e-12
  0
LINE
 8
Agrupar#17
10
952.2360418353082
20
747.6426528784451
30
8.109532403198843e-12
11
953.1419084931672
21
747.5233932704568
31
8.290010258081907e-12
  0
LINE
 8
Agrupar#17
10
953.1419084931672
20
747.5233932704568
30
8.290010258081907e-12
11
953.9860418353082
21
747.1737417916906
31
8.199771330640376e-12
  0
LINE
 8
Agrupar#17
10
953.9860418353082
20
747.1737417916906
30
8.199771330640376e-12
11
954.7109155694612
21
746.617526612598
31
8.560727040406507e-12
  0
LINE
 8
Agrupar#17
10
954.7109155694612
20
746.617526612598
30
8.560727040406507e-12
11
955.2671307485542
21
745.892652878445
31
8.741204895289571e-12
  0
LINE
 8
Agrupar#17
10
955.7360418353086
20
744.1426528784451
30
8.921682750172637e-12
11
955.6167822273205
21
743.2367862205862
31
9.01192167761417e-12
  0
LINE
 8
Agrupar#17
10
955.6167822273205
20
743.2367862205862
30
9.01192167761417e-12
11
955.2671307485542
21
742.392652878445
31
9.01192167761417e-12
  0
LINE
 8
Agrupar#17
10
955.2671307485542
20
742.392652878445
30
9.01192167761417e-12
11
954.7109155694612
21
741.6677791442921
31
8.921682750172637e-12
  0
LINE
 8
Agrupar#17
10
953.9860418353082
20
741.1115639651995
30
8.65096596784804e-12
11
953.1419084931672
21
740.7619124864333
31
8.741204895289571e-12
  0
LINE
 8
Agrupar#17
10
952.2360418353082
20
740.642652878445
30
8.65096596784804e-12
11
951.3301751774493
21
740.7619124864333
31
8.470488112964974e-12
  0
LINE
 8
Agrupar#17
10
951.3301751774493
20
740.7619124864333
30
8.470488112964974e-12
11
950.4860418353084
21
741.1115639651995
31
8.109532403198843e-12
  0
LINE
 8
Agrupar#17
10
949.2049529220627
20
742.392652878445
30
8.01929347575731e-12
11
948.8553014432966
21
743.2367862205862
31
7.929054548315777e-12
  0
LINE
 8
Agrupar#17
10
1033.61678222732
20
743.2367862205843
30
1.9479637260831965e-11
11
1033.2671307485537
21
742.3926528784432
31
1.9208920478507367e-11
  0
LINE
 8
Agrupar#17
10
1032.7109155694611
20
741.6677791442903
30
1.90284426236243e-11
11
1031.9860418353085
21
741.1115639651977
31
1.8847964768741235e-11
  0
LINE
 8
Agrupar#17
10
1031.9860418353085
20
741.1115639651977
30
1.8847964768741235e-11
11
1031.1419084931672
21
740.7619124864314
31
1.8667486913858172e-11
  0
LINE
 8
Agrupar#17
10
1031.1419084931672
20
740.7619124864314
30
1.8667486913858172e-11
11
1030.2360418353085
21
740.6426528784432
31
1.8577247986416638e-11
  0
LINE
 8
Agrupar#17
10
1029.3301751774495
20
740.7619124864314
30
1.8487009058975106e-11
11
1028.4860418353082
21
741.1115639651975
31
1.8577247986416638e-11
  0
LINE
 8
Agrupar#17
10
1028.4860418353082
20
741.1115639651975
30
1.8577247986416638e-11
11
1027.7611681011556
21
741.6677791442901
31
1.8577247986416638e-11
  0
LINE
 8
Agrupar#17
10
1027.7611681011556
20
741.6677791442901
30
1.8577247986416638e-11
11
1027.204952922063
21
742.3926528784431
31
1.8757725841299704e-11
  0
LINE
 8
Agrupar#17
10
1027.204952922063
20
742.3926528784431
30
1.8757725841299704e-11
11
1026.855301443297
21
743.2367862205842
31
1.8847964768741235e-11
  0
LINE
 8
Agrupar#17
10
1026.855301443297
20
743.2367862205842
30
1.8847964768741235e-11
11
1026.7360418353087
21
744.142652878443
31
1.9118681551065833e-11
 0
ENDSEC
 0
EOF
